<svg width="16" height="20" viewBox="0 0 16 20" fill="none" xmlns="http://www.w3.org/2000/svg">
<g clip-path="url(#clip0_45_7771)">
<path d="M15.0464 7.81431C15.0464 3.68842 11.5908 0.368202 7.41772 0.591648C3.58766 0.793064 0.531802 4.07237 0.582156 7.90557C0.619922 10.9394 2.53023 13.5169 5.20843 14.5555L7.7167 19.358C7.75761 19.4367 7.87405 19.4367 7.91496 19.358L10.4232 14.5555C13.1298 13.5075 15.0495 10.8891 15.0495 7.81431H15.0464Z" stroke="#121212" stroke-width="1.57356" stroke-miterlimit="10"/>
<path d="M7.81422 10.9205C9.52974 10.9205 10.9204 9.5298 10.9204 7.81428C10.9204 6.09877 9.52974 4.70807 7.81422 4.70807C6.09871 4.70807 4.70801 6.09877 4.70801 7.81428C4.70801 9.5298 6.09871 10.9205 7.81422 10.9205Z" stroke="#121212" stroke-width="1.57356" stroke-miterlimit="10"/>
</g>
<defs>
<clipPath id="clip0_45_7771">
<rect width="15.6286" height="20" fill="white"/>
</clipPath>
</defs>
</svg>
